# xmcd CD database file
#
# Track frame offsets:
#	150
#	16428
#	40496
#	55796
#	67877
#	83859
#	96934
#	115727
#	139607
#	155013
#	172006
#	194212
#	217615
#	236934
#	257597
#
# Disc length: 3698 seconds
#
# Revision: 4
# Processed by: cddbd v1.5.1PL2 Copyright (c) Steve Scherf et al.
# Submitted via: CDex 1.51
#
DISCID=d30e700f
DTITLE=Various Artist - Rock Legends - Volume 2
DYEAR=1900
DGENRE=
TTITLE0=Born To Be Wild (Live)
TTITLE1=Hurdy Gurdy Man
TTITLE2=Easy Livin'
TTITLE3=Stargazer
TTITLE4=Killed By Death
TTITLE5=Hit List
TTITLE6=Gang Bang
TTITLE7=The Time Machine
TTITLE8=If It Don't Make Your Ears Bleed (It Ain't Rock 'n' Roll)
TTITLE9=Run To Your Mama
TTITLE10=Tonight
TTITLE11=Pretty Woman
TTITLE12=Born To Kill (Live)
TTITLE13=People You Can't Trust
TTITLE14=Devil's Tower
EXTD=
EXTT0=Blue Oyster Cult\n
EXTT1=Status Quo (as The Spectres]\n
EXTT2=Uriah Heep\n
EXTT3=Tempest\n
EXTT4=Motorhead\n
EXTT5=Robin George\n
EXTT6=The Sensational Alex Harvey Band\n
EXTT7=Colosseum\n
EXTT8=Hells Belles\n
EXTT9=Gary Moore\n
EXTT10=Girlschool\n
EXTT11=Juicy Lucy\n
EXTT12=The Damned\n
EXTT13=Atomic Rooster\n
EXTT14=Angel Witch\n
PLAYORDER=
